<svg id="container" width="1567.91015625" xmlns="http://www.w3.org/2000/svg" class="flowchart" height="957.6822509765625" viewBox="0 0 1567.91015625 957.6822509765625" role="graphics-document document" aria-roledescription="flowchart-v2"><style>#container{font-family:"trebuchet ms",verdana,arial,sans-serif;font-size:16px;fill:#000000;}@keyframes edge-animation-frame{from{stroke-dashoffset:0;}}@keyframes dash{to{stroke-dashoffset:0;}}#container .edge-animation-slow{stroke-dasharray:9,5!important;stroke-dashoffset:900;animation:dash 50s linear infinite;stroke-linecap:round;}#container .edge-animation-fast{stroke-dasharray:9,5!important;stroke-dashoffset:900;animation:dash 20s linear infinite;stroke-linecap:round;}#container .error-icon{fill:#552222;}#container .error-text{fill:#552222;stroke:#552222;}#container .edge-thickness-normal{stroke-width:1px;}#container .edge-thickness-thick{stroke-width:3.5px;}#container .edge-pattern-solid{stroke-dasharray:0;}#container .edge-thickness-invisible{stroke-width:0;fill:none;}#container .edge-pattern-dashed{stroke-dasharray:3;}#container .edge-pattern-dotted{stroke-dasharray:2;}#container .marker{fill:#666;stroke:#666;}#container .marker.cross{stroke:#666;}#container svg{font-family:"trebuchet ms",verdana,arial,sans-serif;font-size:16px;}#container p{margin:0;}#container .label{font-family:"trebuchet ms",verdana,arial,sans-serif;color:#000000;}#container .cluster-label text{fill:#333;}#container .cluster-label span{color:#333;}#container .cluster-label span p{background-color:transparent;}#container .label text,#container span{fill:#000000;color:#000000;}#container .node rect,#container .node circle,#container .node ellipse,#container .node polygon,#container .node path{fill:#eee;stroke:#999;stroke-width:1px;}#container .rough-node .label text,#container .node .label text,#container .image-shape .label,#container .icon-shape .label{text-anchor:middle;}#container .node .katex path{fill:#000;stroke:#000;stroke-width:1px;}#container .rough-node .label,#container .node .label,#container .image-shape .label,#container .icon-shape .label{text-align:center;}#container .node.clickable{cursor:pointer;}#container .root .anchor path{fill:#666!important;stroke-width:0;stroke:#666;}#container .arrowheadPath{fill:#333333;}#container .edgePath .path{stroke:#666;stroke-width:1px;}#container .flowchart-link{stroke:#666;fill:none;}#container .edgeLabel{background-color:white;text-align:center;}#container .edgeLabel p{background-color:white;}#container .edgeLabel rect{opacity:0.5;background-color:white;fill:white;}#container .labelBkg{background-color:rgba(255, 255, 255, 0.5);}#container .cluster rect{fill:hsl(0, 0%, 98.9215686275%);stroke:#707070;stroke-width:1px;}#container .cluster text{fill:#333;}#container .cluster span{color:#333;}#container div.mermaidTooltip{position:absolute;text-align:center;max-width:200px;padding:2px;font-family:"trebuchet ms",verdana,arial,sans-serif;font-size:12px;background:hsl(-160, 0%, 93.3333333333%);border:1px solid #707070;border-radius:2px;pointer-events:none;z-index:100;}#container .flowchartTitleText{text-anchor:middle;font-size:18px;fill:#000000;}#container rect.text{fill:none;stroke-width:0;}#container .icon-shape,#container .image-shape{background-color:white;text-align:center;}#container .icon-shape p,#container .image-shape p{background-color:white;padding:2px;}#container .icon-shape .label rect,#container .image-shape .label rect{opacity:0.5;background-color:white;fill:white;}#container .label-icon{display:inline-block;height:1em;overflow:visible;vertical-align:-0.125em;}#container .node .label-icon path{fill:currentColor;stroke:revert;stroke-width:revert;}#container .node .neo-node{stroke:#999;}#container [data-look="neo"].node rect,#container [data-look="neo"].cluster rect,#container [data-look="neo"].node polygon{stroke:url(#container-gradient);filter:drop-shadow( 1px 2px 2px rgba(185,185,185,1));}#container [data-look="neo"].node path{stroke:url(#container-gradient);stroke-width:1px;}#container [data-look="neo"].node .outer-path{filter:drop-shadow( 1px 2px 2px rgba(185,185,185,1));}#container [data-look="neo"].node .neo-line path{stroke:#999;filter:none;}#container [data-look="neo"].node circle{stroke:url(#container-gradient);filter:drop-shadow( 1px 2px 2px rgba(185,185,185,1));}#container [data-look="neo"].node circle .state-start{fill:#000000;}#container [data-look="neo"].icon-shape .icon{fill:url(#container-gradient);filter:drop-shadow( 1px 2px 2px rgba(185,185,185,1));}#container [data-look="neo"].icon-shape .icon-neo path{stroke:url(#container-gradient);filter:drop-shadow( 1px 2px 2px rgba(185,185,185,1));}#container :root{--mermaid-font-family:"trebuchet ms",verdana,arial,sans-serif;}#container .edge&gt;*{fill:rgb(255, 243, 191)!important;stroke:rgb(240, 140, 0)!important;color:rgb(26, 26, 26)!important;}#container .edge span{fill:rgb(255, 243, 191)!important;stroke:rgb(240, 140, 0)!important;color:rgb(26, 26, 26)!important;}#container .edge tspan{fill:rgb(26, 26, 26)!important;}#container .svc&gt;*{fill:rgb(208, 235, 255)!important;stroke:rgb(28, 126, 214)!important;color:rgb(26, 26, 26)!important;}#container .svc span{fill:rgb(208, 235, 255)!important;stroke:rgb(28, 126, 214)!important;color:rgb(26, 26, 26)!important;}#container .svc tspan{fill:rgb(26, 26, 26)!important;}#container .store&gt;*{fill:rgb(211, 249, 216)!important;stroke:rgb(47, 158, 68)!important;color:rgb(26, 26, 26)!important;}#container .store span{fill:rgb(211, 249, 216)!important;stroke:rgb(47, 158, 68)!important;color:rgb(26, 26, 26)!important;}#container .store tspan{fill:rgb(26, 26, 26)!important;}#container .async&gt;*{fill:rgb(255, 232, 204)!important;stroke:rgb(232, 89, 12)!important;color:rgb(26, 26, 26)!important;}#container .async span{fill:rgb(255, 232, 204)!important;stroke:rgb(232, 89, 12)!important;color:rgb(26, 26, 26)!important;}#container .async tspan{fill:rgb(26, 26, 26)!important;}</style><g><marker id="container_flowchart-v2-pointEnd" class="marker flowchart-v2" viewBox="0 0 10 10" refX="5" refY="5" markerUnits="userSpaceOnUse" markerWidth="8" markerHeight="8" orient="auto"><path d="M 0 0 L 10 5 L 0 10 z" class="arrowMarkerPath" style="stroke-width: 1; stroke-dasharray: 1, 0;"></path></marker><marker id="container_flowchart-v2-pointStart" class="marker flowchart-v2" viewBox="0 0 10 10" refX="4.5" refY="5" markerUnits="userSpaceOnUse" markerWidth="8" markerHeight="8" orient="auto"><path d="M 0 5 L 10 10 L 10 0 z" class="arrowMarkerPath" style="stroke-width: 1; stroke-dasharray: 1, 0;"></path></marker><marker id="container_flowchart-v2-pointEnd-margin" class="marker flowchart-v2" viewBox="0 0 11.5 14" refX="11.5" refY="7" markerUnits="userSpaceOnUse" markerWidth="10.5" markerHeight="14" orient="auto"><path d="M 0 0 L 11.5 7 L 0 14 z" class="arrowMarkerPath" style="stroke-width: 0; stroke-dasharray: 1, 0;"></path></marker><marker id="container_flowchart-v2-pointStart-margin" class="marker flowchart-v2" viewBox="0 0 11.5 14" refX="1" refY="7" markerUnits="userSpaceOnUse" markerWidth="11.5" markerHeight="14" orient="auto"><polygon points="0,7 11.5,14 11.5,0" class="arrowMarkerPath" style="stroke-width: 0; stroke-dasharray: 1, 0;"></polygon></marker><marker id="container_flowchart-v2-circleEnd" class="marker flowchart-v2" viewBox="0 0 10 10" refX="11" refY="5" markerUnits="userSpaceOnUse" markerWidth="11" markerHeight="11" orient="auto"><circle cx="5" cy="5" r="5" class="arrowMarkerPath" style="stroke-width: 1; stroke-dasharray: 1, 0;"></circle></marker><marker id="container_flowchart-v2-circleStart" class="marker flowchart-v2" viewBox="0 0 10 10" refX="-1" refY="5" markerUnits="userSpaceOnUse" markerWidth="11" markerHeight="11" orient="auto"><circle cx="5" cy="5" r="5" class="arrowMarkerPath" style="stroke-width: 1; stroke-dasharray: 1, 0;"></circle></marker><marker id="container_flowchart-v2-circleEnd-margin" class="marker flowchart-v2" viewBox="0 0 10 10" refY="5" refX="12.25" markerUnits="userSpaceOnUse" markerWidth="14" markerHeight="14" orient="auto"><circle cx="5" cy="5" r="5" class="arrowMarkerPath" style="stroke-width: 0; stroke-dasharray: 1, 0;"></circle></marker><marker id="container_flowchart-v2-circleStart-margin" class="marker flowchart-v2" viewBox="0 0 10 10" refX="-2" refY="5" markerUnits="userSpaceOnUse" markerWidth="14" markerHeight="14" orient="auto"><circle cx="5" cy="5" r="5" class="arrowMarkerPath" style="stroke-width: 0; stroke-dasharray: 1, 0;"></circle></marker><marker id="container_flowchart-v2-crossEnd" class="marker cross flowchart-v2" viewBox="0 0 11 11" refX="12" refY="5.2" markerUnits="userSpaceOnUse" markerWidth="11" markerHeight="11" orient="auto"><path d="M 1,1 l 9,9 M 10,1 l -9,9" class="arrowMarkerPath" style="stroke-width: 2; stroke-dasharray: 1, 0;"></path></marker><marker id="container_flowchart-v2-crossStart" class="marker cross flowchart-v2" viewBox="0 0 11 11" refX="-1" refY="5.2" markerUnits="userSpaceOnUse" markerWidth="11" markerHeight="11" orient="auto"><path d="M 1,1 l 9,9 M 10,1 l -9,9" class="arrowMarkerPath" style="stroke-width: 2; stroke-dasharray: 1, 0;"></path></marker><marker id="container_flowchart-v2-crossEnd-margin" class="marker cross flowchart-v2" viewBox="0 0 15 15" refX="17.7" refY="7.5" markerUnits="userSpaceOnUse" markerWidth="12" markerHeight="12" orient="auto"><path d="M 1,1 L 14,14 M 1,14 L 14,1" class="arrowMarkerPath" style="stroke-width: 2.5;"></path></marker><marker id="container_flowchart-v2-crossStart-margin" class="marker cross flowchart-v2" viewBox="0 0 15 15" refX="-3.5" refY="7.5" markerUnits="userSpaceOnUse" markerWidth="12" markerHeight="12" orient="auto"><path d="M 1,1 L 14,14 M 1,14 L 14,1" class="arrowMarkerPath" style="stroke-width: 2.5; stroke-dasharray: 1, 0;"></path></marker><g class="root"><g class="clusters"><g class="cluster" id="container-Storage" data-look="classic"><rect style="" x="68.765625" y="800" width="1491.14453125" height="149.6822738647461"></rect><g class="cluster-label" transform="translate(787.064453125, 800)"><foreignObject width="54.546875" height="24"><div xmlns="http://www.w3.org/1999/xhtml" style="display: table-cell; white-space: nowrap; line-height: 1.5;"><span class="nodeLabel"><p>Storage</p></span></div></foreignObject></g></g><g class="cluster" id="container-Async" data-look="classic"><rect style="" x="8" y="493" width="467.4765625" height="257"></rect><g class="cluster-label" transform="translate(221.10546875, 493)"><foreignObject width="41.265625" height="24"><div xmlns="http://www.w3.org/1999/xhtml" style="display: table-cell; white-space: nowrap; line-height: 1.5;"><span class="nodeLabel"><p>Async</p></span></div></foreignObject></g></g><g class="cluster" id="container-Services" data-look="classic"><rect style="" x="515.4765625" y="364" width="991.10546875" height="233"></rect><g class="cluster-label" transform="translate(981.263671875, 364)"><foreignObject width="59.53125" height="24"><div xmlns="http://www.w3.org/1999/xhtml" style="display: table-cell; white-space: nowrap; line-height: 1.5;"><span class="nodeLabel"><p>Services</p></span></div></foreignObject></g></g><g class="cluster" id="container-Edge" data-look="classic"><rect style="" x="330.4765625" y="162" width="1083.1328125" height="152"></rect><g class="cluster-label" transform="translate(854.74609375, 162)"><foreignObject width="34.59375" height="24"><div xmlns="http://www.w3.org/1999/xhtml" style="display: table-cell; white-space: nowrap; line-height: 1.5;"><span class="nodeLabel"><p>Edge</p></span></div></foreignObject></g></g><g class="cluster" id="container-Clients" data-look="classic"><rect style="" x="418.65625" y="8" width="557.4140625" height="104"></rect><g class="cluster-label" transform="translate(672.68359375, 8)"><foreignObject width="49.359375" height="24"><div xmlns="http://www.w3.org/1999/xhtml" style="display: table-cell; white-space: nowrap; line-height: 1.5;"><span class="nodeLabel"><p>Clients</p></span></div></foreignObject></g></g></g><g class="edgePaths"><path d="M802.328,75.426L822.457,81.521C842.586,87.617,882.844,99.809,902.973,110.071C923.102,120.333,923.102,128.667,923.102,137C923.102,145.333,923.102,153.667,923.102,165.333C923.102,177,923.102,192,923.102,199.5L923.102,207" id="container-L_Mobile_GW_0" class="edge-thickness-normal edge-pattern-solid edge-thickness-normal edge-pattern-solid flowchart-link" style=";" data-edge="true" data-et="edge" data-id="L_Mobile_GW_0" data-points="W3sieCI6ODAyLjMyODEyNSwieSI6NzUuNDI1NjMzNTU5MzA2NjJ9LHsieCI6OTIzLjEwMTU2MjUsInkiOjExMn0seyJ4Ijo5MjMuMTAxNTYyNSwieSI6MTM3fSx7IngiOjkyMy4xMDE1NjI1LCJ5IjoxNjJ9LHsieCI6OTIzLjEwMTU2MjUsInkiOjIxMX1d" data-look="classic" marker-end="url(#container_flowchart-v2-pointEnd)"></path><path d="M700.453,70.35L666.29,77.292C632.128,84.233,563.802,98.117,529.639,109.225C495.477,120.333,495.477,128.667,495.477,137C495.477,145.333,495.477,153.667,495.477,161.333C495.477,169,495.477,176,495.477,179.5L495.477,183" id="container-L_Mobile_CDN_0" class="edge-thickness-normal edge-pattern-solid edge-thickness-normal edge-pattern-solid flowchart-link" style=";" data-edge="true" data-et="edge" data-id="L_Mobile_CDN_0" data-points="W3sieCI6NzAwLjQ1MzEyNSwieSI6NzAuMzUwMTU0MTY1NTIxODd9LHsieCI6NDk1LjQ3NjU2MjUsInkiOjExMn0seyJ4Ijo0OTUuNDc2NTYyNSwieSI6MTM3fSx7IngiOjQ5NS40NzY1NjI1LCJ5IjoxNjJ9LHsieCI6NDk1LjQ3NjU2MjUsInkiOjE4N31d" data-look="classic" marker-end="url(#container_flowchart-v2-pointEnd)"></path><path d="M893.187,265L884.139,273.167C875.091,281.333,856.995,297.667,847.947,310C838.898,322.333,838.898,330.667,838.898,339C838.898,347.333,838.898,355.667,838.898,363.333C838.898,371,838.898,378,838.898,381.5L838.898,385" id="container-L_GW_VideoSvc_0" class="edge-thickness-normal edge-pattern-solid edge-thickness-normal edge-pattern-solid flowchart-link" style=";" data-edge="true" data-et="edge" data-id="L_GW_VideoSvc_0" data-points="W3sieCI6ODkzLjE4NzI5NDQwNzg5NDcsInkiOjI2NX0seyJ4Ijo4MzguODk4NDM3NSwieSI6MzE0fSx7IngiOjgzOC44OTg0Mzc1LCJ5IjozMzl9LHsieCI6ODM4Ljg5ODQzNzUsInkiOjM2NH0seyJ4Ijo4MzguODk4NDM3NSwieSI6Mzg5fV0=" data-look="classic" marker-end="url(#container_flowchart-v2-pointEnd)"></path><path d="M965.65,265L978.519,273.167C991.389,281.333,1017.128,297.667,1029.998,310C1042.867,322.333,1042.867,330.667,1042.867,339C1042.867,347.333,1042.867,355.667,1042.867,363.333C1042.867,371,1042.867,378,1042.867,381.5L1042.867,385" id="container-L_GW_FeedSvc_0" class="edge-thickness-normal edge-pattern-solid edge-thickness-normal edge-pattern-solid flowchart-link" style=";" data-edge="true" data-et="edge" data-id="L_GW_FeedSvc_0" data-points="W3sieCI6OTY1LjY0OTg3NjY0NDczNjksInkiOjI2NX0seyJ4IjoxMDQyLjg2NzE4NzUsInkiOjMxNH0seyJ4IjoxMDQyLjg2NzE4NzUsInkiOjMzOX0seyJ4IjoxMDQyLjg2NzE4NzUsInkiOjM2NH0seyJ4IjoxMDQyLjg2NzE4NzUsInkiOjM4OX1d" data-look="classic" marker-end="url(#container_flowchart-v2-pointEnd)"></path><path d="M997.156,251.212L1055.811,261.677C1114.465,272.141,1231.773,293.071,1290.428,307.702C1349.082,322.333,1349.082,330.667,1349.082,339C1349.082,347.333,1349.082,355.667,1349.082,368.5C1349.082,381.333,1349.082,398.667,1349.082,416C1349.082,433.333,1349.082,450.667,1349.082,463.5C1349.082,476.333,1349.082,484.667,1349.082,492.333C1349.082,500,1349.082,507,1349.082,510.5L1349.082,514" id="container-L_GW_SearchSvc_0" class="edge-thickness-normal edge-pattern-solid edge-thickness-normal edge-pattern-solid flowchart-link" style=";" data-edge="true" data-et="edge" data-id="L_GW_SearchSvc_0" data-points="W3sieCI6OTk3LjE1NjI1LCJ5IjoyNTEuMjEyMjQwMTQ0NTE5NTR9LHsieCI6MTM0OS4wODIwMzEyNSwieSI6MzE0fSx7IngiOjEzNDkuMDgyMDMxMjUsInkiOjMzOX0seyJ4IjoxMzQ5LjA4MjAzMTI1LCJ5IjozNjR9LHsieCI6MTM0OS4wODIwMzEyNSwieSI6NDE2fSx7IngiOjEzNDkuMDgyMDMxMjUsInkiOjQ2OH0seyJ4IjoxMzQ5LjA4MjAzMTI1LCJ5Ijo0OTN9LHsieCI6MTM0OS4wODIwMzEyNSwieSI6NTE4fV0=" data-look="classic" marker-end="url(#container_flowchart-v2-pointEnd)"></path><path d="M849.047,257.225L812.598,266.688C776.148,276.15,703.25,295.075,666.801,308.704C630.352,322.333,630.352,330.667,630.352,339C630.352,347.333,630.352,355.667,630.352,363.333C630.352,371,630.352,378,630.352,381.5L630.352,385" id="container-L_GW_SocialSvc_0" class="edge-thickness-normal edge-pattern-solid edge-thickness-normal edge-pattern-solid flowchart-link" style=";" data-edge="true" data-et="edge" data-id="L_GW_SocialSvc_0" data-points="W3sieCI6ODQ5LjA0Njg3NSwieSI6MjU3LjIyNTEyODA5NTY0NDh9LHsieCI6NjMwLjM1MTU2MjUsInkiOjMxNH0seyJ4Ijo2MzAuMzUxNTYyNSwieSI6MzM5fSx7IngiOjYzMC4zNTE1NjI1LCJ5IjozNjR9LHsieCI6NjMwLjM1MTU2MjUsInkiOjM4OX1d" data-look="classic" marker-end="url(#container_flowchart-v2-pointEnd)"></path><path d="M838.898,443L838.898,447.167C838.898,451.333,838.898,459.667,838.898,468C838.898,476.333,838.898,484.667,838.898,497.5C838.898,510.333,838.898,527.667,838.898,545C838.898,562.333,838.898,579.667,838.898,592.5C838.898,605.333,838.898,613.667,838.898,628.5C838.898,643.333,838.898,664.667,838.898,686C838.898,707.333,838.898,728.667,838.898,743.5C838.898,758.333,838.898,766.667,838.898,775C838.898,783.333,838.898,791.667,792.289,805.991C745.68,820.315,652.462,840.63,605.853,850.787L559.244,860.944" id="container-L_VideoSvc_Obj_0" class="edge-thickness-normal edge-pattern-solid edge-thickness-normal edge-pattern-solid flowchart-link" style=";" data-edge="true" data-et="edge" data-id="L_VideoSvc_Obj_0" data-points="W3sieCI6ODM4Ljg5ODQzNzUsInkiOjQ0M30seyJ4Ijo4MzguODk4NDM3NSwieSI6NDY4fSx7IngiOjgzOC44OTg0Mzc1LCJ5Ijo0OTN9LHsieCI6ODM4Ljg5ODQzNzUsInkiOjU0NX0seyJ4Ijo4MzguODk4NDM3NSwieSI6NTk3fSx7IngiOjgzOC44OTg0Mzc1LCJ5Ijo2MjJ9LHsieCI6ODM4Ljg5ODQzNzUsInkiOjY4Nn0seyJ4Ijo4MzguODk4NDM3NSwieSI6NzUwfSx7IngiOjgzOC44OTg0Mzc1LCJ5Ijo3NzV9LHsieCI6ODM4Ljg5ODQzNzUsInkiOjgwMH0seyJ4Ijo1NTUuMzM1OTM3NSwieSI6ODYxLjc5NjEyMTQzNjMxMjJ9XQ==" data-look="classic" marker-end="url(#container_flowchart-v2-pointEnd)"></path><path d="M784.756,443L776.401,447.167C768.046,451.333,751.335,459.667,742.98,468C734.625,476.333,734.625,484.667,654.122,495.937C573.62,507.207,412.615,521.414,332.112,528.517L251.61,535.621" id="container-L_VideoSvc_Pulsar_0" class="edge-thickness-normal edge-pattern-solid edge-thickness-normal edge-pattern-solid flowchart-link" style=";" data-edge="true" data-et="edge" data-id="L_VideoSvc_Pulsar_0" data-points="W3sieCI6Nzg0Ljc1NjQ2MDMzNjUzODUsInkiOjQ0M30seyJ4Ijo3MzQuNjI1LCJ5Ijo0Njh9LHsieCI6NzM0LjYyNSwieSI6NDkzfSx7IngiOjI0Ny42MjUsInkiOjUzNS45NzIxMDczMjg0NTQ3fV0=" data-look="classic" marker-end="url(#container_flowchart-v2-pointEnd)"></path><path d="M917.57,422.316L1012.406,429.93C1107.241,437.544,1296.911,452.772,1391.747,464.553C1486.582,476.333,1486.582,484.667,1486.582,497.5C1486.582,510.333,1486.582,527.667,1486.582,545C1486.582,562.333,1486.582,579.667,1486.582,592.5C1486.582,605.333,1486.582,613.667,1486.582,628.5C1486.582,643.333,1486.582,664.667,1486.582,686C1486.582,707.333,1486.582,728.667,1486.582,743.5C1486.582,758.333,1486.582,766.667,1486.582,775C1486.582,783.333,1486.582,791.667,1486.069,799.687C1485.556,807.707,1484.53,815.413,1484.017,819.266L1483.504,823.12" id="container-L_VideoSvc_PG_0" class="edge-thickness-normal edge-pattern-solid edge-thickness-normal edge-pattern-solid flowchart-link" style=";" data-edge="true" data-et="edge" data-id="L_VideoSvc_PG_0" data-points="W3sieCI6OTE3LjU3MDMxMjUsInkiOjQyMi4zMTYyNTkyNjUyOTAzNH0seyJ4IjoxNDg2LjU4MjAzMTI1LCJ5Ijo0Njh9LHsieCI6MTQ4Ni41ODIwMzEyNSwieSI6NDkzfSx7IngiOjE0ODYuNTgyMDMxMjUsInkiOjU0NX0seyJ4IjoxNDg2LjU4MjAzMTI1LCJ5Ijo1OTd9LHsieCI6MTQ4Ni41ODIwMzEyNSwieSI6NjIyfSx7IngiOjE0ODYuNTgyMDMxMjUsInkiOjY4Nn0seyJ4IjoxNDg2LjU4MjAzMTI1LCJ5Ijo3NTB9LHsieCI6MTQ4Ni41ODIwMzEyNSwieSI6Nzc1fSx7IngiOjE0ODYuNTgyMDMxMjUsInkiOjgwMH0seyJ4IjoxNDgyLjk3NTg5Mzc3ODczNzgsInkiOjgyNy4wODQ1NzI0MzIyODgzfV0=" data-look="classic" marker-end="url(#container_flowchart-v2-pointEnd)"></path><path d="M1001.923,443L995.604,447.167C989.286,451.333,976.649,459.667,970.33,468C964.012,476.333,964.012,484.667,964.012,497.5C964.012,510.333,964.012,527.667,964.012,545C964.012,562.333,964.012,579.667,964.012,592.5C964.012,605.333,964.012,613.667,964.012,628.5C964.012,643.333,964.012,664.667,964.012,686C964.012,707.333,964.012,728.667,964.012,743.5C964.012,758.333,964.012,766.667,964.012,775C964.012,783.333,964.012,791.667,964.012,799.663C964.012,807.658,964.012,815.317,964.012,819.146L964.012,822.975" id="container-L_FeedSvc_FeedCache_0" class="edge-thickness-normal edge-pattern-solid edge-thickness-normal edge-pattern-solid flowchart-link" style=";" data-edge="true" data-et="edge" data-id="L_FeedSvc_FeedCache_0" data-points="W3sieCI6MTAwMS45MjMwMDE4MDI4ODQ2LCJ5Ijo0NDN9LHsieCI6OTY0LjAxMTcxODc1LCJ5Ijo0Njh9LHsieCI6OTY0LjAxMTcxODc1LCJ5Ijo0OTN9LHsieCI6OTY0LjAxMTcxODc1LCJ5Ijo1NDV9LHsieCI6OTY0LjAxMTcxODc1LCJ5Ijo1OTd9LHsieCI6OTY0LjAxMTcxODc1LCJ5Ijo2MjJ9LHsieCI6OTY0LjAxMTcxODc1LCJ5Ijo2ODZ9LHsieCI6OTY0LjAxMTcxODc1LCJ5Ijo3NTB9LHsieCI6OTY0LjAxMTcxODc1LCJ5Ijo3NzV9LHsieCI6OTY0LjAxMTcxODc1LCJ5Ijo4MDB9LHsieCI6OTY0LjAxMTcxODc1LCJ5Ijo4MjYuOTc1MzQxNzk2ODc1fV0=" data-look="classic" marker-end="url(#container_flowchart-v2-pointEnd)"></path><path d="M1087.815,443L1094.752,447.167C1101.688,451.333,1115.561,459.667,1122.497,468C1129.434,476.333,1129.434,484.667,1129.434,492.333C1129.434,500,1129.434,507,1129.434,510.5L1129.434,514" id="container-L_FeedSvc_Ranking_0" class="edge-thickness-normal edge-pattern-solid edge-thickness-normal edge-pattern-solid flowchart-link" style=";" data-edge="true" data-et="edge" data-id="L_FeedSvc_Ranking_0" data-points="W3sieCI6MTA4Ny44MTUxMjkyMDY3MzA3LCJ5Ijo0NDN9LHsieCI6MTEyOS40MzM1OTM3NSwieSI6NDY4fSx7IngiOjExMjkuNDMzNTkzNzUsInkiOjQ5M30seyJ4IjoxMTI5LjQzMzU5Mzc1LCJ5Ijo1MTh9XQ==" data-look="classic" marker-end="url(#container_flowchart-v2-pointEnd)"></path><path d="M1182.417,572L1190.594,576.167C1198.77,580.333,1215.124,588.667,1223.3,597C1231.477,605.333,1231.477,613.667,1231.477,628.5C1231.477,643.333,1231.477,664.667,1231.477,686C1231.477,707.333,1231.477,728.667,1231.477,743.5C1231.477,758.333,1231.477,766.667,1231.477,775C1231.477,783.333,1231.477,791.667,1230.989,799.492C1230.502,807.317,1229.527,814.635,1229.04,818.293L1228.553,821.952" id="container-L_Ranking_Idx_0" class="edge-thickness-normal edge-pattern-solid edge-thickness-normal edge-pattern-solid flowchart-link" style=";" data-edge="true" data-et="edge" data-id="L_Ranking_Idx_0" data-points="W3sieCI6MTE4Mi40MTc0NDI5MDg2NTM4LCJ5Ijo1NzJ9LHsieCI6MTIzMS40NzY1NjI1LCJ5Ijo1OTd9LHsieCI6MTIzMS40NzY1NjI1LCJ5Ijo2MjJ9LHsieCI6MTIzMS40NzY1NjI1LCJ5Ijo2ODZ9LHsieCI6MTIzMS40NzY1NjI1LCJ5Ijo3NTB9LHsieCI6MTIzMS40NzY1NjI1LCJ5Ijo3NzV9LHsieCI6MTIzMS40NzY1NjI1LCJ5Ijo4MDB9LHsieCI6MTIyOC4wMjQ4MzIyOTA0MTY1LCJ5Ijo4MjUuOTE2OTczNDQ0MjczM31d" data-look="classic" marker-end="url(#container_flowchart-v2-pointEnd)"></path><path d="M1042.285,555.247L983.102,562.206C923.919,569.165,805.553,583.082,699.41,594.208C593.267,605.333,499.346,613.667,449.538,621.475C399.73,629.283,394.034,636.566,391.187,640.208L388.339,643.849" id="container-L_Ranking_Train_0" class="edge-thickness-normal edge-pattern-solid edge-thickness-normal edge-pattern-solid flowchart-link" style=";" data-edge="true" data-et="edge" data-id="L_Ranking_Train_0" data-points="W3sieCI6MTA0Mi4yODUxNTYyNSwieSI6NTU1LjI0NzA1MjA2OTA3MjF9LHsieCI6Njg3LjE4NzUsInkiOjU5N30seyJ4Ijo0MDUuNDI1NzgxMjUsInkiOjYyMn0seyJ4IjozODUuODc0Njk0ODI0MjE4NzUsInkiOjY0N31d" data-look="classic" marker-end="url(#container_flowchart-v2-pointEnd)"></path><path d="M1277.633,572L1266.607,576.167C1255.581,580.333,1233.529,588.667,1222.503,597C1211.477,605.333,1211.477,613.667,1211.477,628.5C1211.477,643.333,1211.477,664.667,1211.477,686C1211.477,707.333,1211.477,728.667,1211.477,743.5C1211.477,758.333,1211.477,766.667,1211.477,775C1211.477,783.333,1211.477,791.667,1211.964,799.492C1212.451,807.317,1213.426,814.635,1213.913,818.293L1214.4,821.952" id="container-L_SearchSvc_Idx_0" class="edge-thickness-normal edge-pattern-solid edge-thickness-normal edge-pattern-solid flowchart-link" style=";" data-edge="true" data-et="edge" data-id="L_SearchSvc_Idx_0" data-points="W3sieCI6MTI3Ny42MzMwMzc4NjA1NzcsInkiOjU3Mn0seyJ4IjoxMjExLjQ3NjU2MjUsInkiOjU5N30seyJ4IjoxMjExLjQ3NjU2MjUsInkiOjYyMn0seyJ4IjoxMjExLjQ3NjU2MjUsInkiOjY4Nn0seyJ4IjoxMjExLjQ3NjU2MjUsInkiOjc1MH0seyJ4IjoxMjExLjQ3NjU2MjUsInkiOjc3NX0seyJ4IjoxMjExLjQ3NjU2MjUsInkiOjgwMH0seyJ4IjoxMjE0LjkyODI5MjcwOTU4MzUsInkiOjgyNS45MTY5NzM0NDQyNzMzfV0=" data-look="classic" marker-end="url(#container_flowchart-v2-pointEnd)"></path><path d="M710.227,420.967L836.286,428.806C962.345,436.645,1214.464,452.322,1340.523,464.328C1466.582,476.333,1466.582,484.667,1466.582,497.5C1466.582,510.333,1466.582,527.667,1466.582,545C1466.582,562.333,1466.582,579.667,1466.582,592.5C1466.582,605.333,1466.582,613.667,1466.582,628.5C1466.582,643.333,1466.582,664.667,1466.582,686C1466.582,707.333,1466.582,728.667,1466.582,743.5C1466.582,758.333,1466.582,766.667,1466.582,775C1466.582,783.333,1466.582,791.667,1467.095,799.687C1467.608,807.707,1468.634,815.413,1469.147,819.266L1469.66,823.12" id="container-L_SocialSvc_PG_0" class="edge-thickness-normal edge-pattern-solid edge-thickness-normal edge-pattern-solid flowchart-link" style=";" data-edge="true" data-et="edge" data-id="L_SocialSvc_PG_0" data-points="W3sieCI6NzEwLjIyNjU2MjUsInkiOjQyMC45NjY5MzIxNDk5NDc0N30seyJ4IjoxNDY2LjU4MjAzMTI1LCJ5Ijo0Njh9LHsieCI6MTQ2Ni41ODIwMzEyNSwieSI6NDkzfSx7IngiOjE0NjYuNTgyMDMxMjUsInkiOjU0NX0seyJ4IjoxNDY2LjU4MjAzMTI1LCJ5Ijo1OTd9LHsieCI6MTQ2Ni41ODIwMzEyNSwieSI6NjIyfSx7IngiOjE0NjYuNTgyMDMxMjUsInkiOjY4Nn0seyJ4IjoxNDY2LjU4MjAzMTI1LCJ5Ijo3NTB9LHsieCI6MTQ2Ni41ODIwMzEyNSwieSI6Nzc1fSx7IngiOjE0NjYuNTgyMDMxMjUsInkiOjgwMH0seyJ4IjoxNDcwLjE4ODE2ODcyMTI2MjIsInkiOjgyNy4wODQ1NzI0MzIyODgzfV0=" data-look="classic" marker-end="url(#container_flowchart-v2-pointEnd)"></path><path d="M630.352,443L630.352,447.167C630.352,451.333,630.352,459.667,630.352,468C630.352,476.333,630.352,484.667,567.227,495.601C504.102,506.535,377.852,520.07,314.727,526.837L251.602,533.605" id="container-L_SocialSvc_Pulsar_0" class="edge-thickness-normal edge-pattern-solid edge-thickness-normal edge-pattern-solid flowchart-link" style=";" data-edge="true" data-et="edge" data-id="L_SocialSvc_Pulsar_0" data-points="W3sieCI6NjMwLjM1MTU2MjUsInkiOjQ0M30seyJ4Ijo2MzAuMzUxNTYyNSwieSI6NDY4fSx7IngiOjYzMC4zNTE1NjI1LCJ5Ijo0OTN9LHsieCI6MjQ3LjYyNSwieSI6NTM0LjAzMTI5NTgwNDEzOTV9XQ==" data-look="classic" marker-end="url(#container_flowchart-v2-pointEnd)"></path><path d="M495.477,289L495.477,293.167C495.477,297.333,495.477,305.667,495.477,314C495.477,322.333,495.477,330.667,495.477,339C495.477,347.333,495.477,355.667,495.477,368.5C495.477,381.333,495.477,398.667,495.477,416C495.477,433.333,495.477,450.667,495.477,463.5C495.477,476.333,495.477,484.667,495.477,497.5C495.477,510.333,495.477,527.667,495.477,545C495.477,562.333,495.477,579.667,495.477,592.5C495.477,605.333,495.477,613.667,495.477,628.5C495.477,643.333,495.477,664.667,495.477,686C495.477,707.333,495.477,728.667,495.477,743.5C495.477,758.333,495.477,766.667,495.477,775C495.477,783.333,495.477,791.667,495.477,799.333C495.477,807,495.477,814,495.477,817.5L495.477,821" id="container-L_CDN_Obj_0" class="edge-thickness-normal edge-pattern-solid edge-thickness-normal edge-pattern-solid flowchart-link" style=";" data-edge="true" data-et="edge" data-id="L_CDN_Obj_0" data-points="W3sieCI6NDk1LjQ3NjU2MjUsInkiOjI4OX0seyJ4Ijo0OTUuNDc2NTYyNSwieSI6MzE0fSx7IngiOjQ5NS40NzY1NjI1LCJ5IjozMzl9LHsieCI6NDk1LjQ3NjU2MjUsInkiOjM2NH0seyJ4Ijo0OTUuNDc2NTYyNSwieSI6NDE2fSx7IngiOjQ5NS40NzY1NjI1LCJ5Ijo0Njh9LHsieCI6NDk1LjQ3NjU2MjUsInkiOjQ5M30seyJ4Ijo0OTUuNDc2NTYyNSwieSI6NTQ1fSx7IngiOjQ5NS40NzY1NjI1LCJ5Ijo1OTd9LHsieCI6NDk1LjQ3NjU2MjUsInkiOjYyMn0seyJ4Ijo0OTUuNDc2NTYyNSwieSI6Njg2fSx7IngiOjQ5NS40NzY1NjI1LCJ5Ijo3NTB9LHsieCI6NDk1LjQ3NjU2MjUsInkiOjc3NX0seyJ4Ijo0OTUuNDc2NTYyNSwieSI6ODAwfSx7IngiOjQ5NS40NzY1NjI1LCJ5Ijo4MjV9XQ==" data-look="classic" marker-end="url(#container_flowchart-v2-pointEnd)"></path><path d="M140.579,572L139.848,576.167C139.117,580.333,137.656,588.667,136.926,597C136.195,605.333,136.195,613.667,136.195,621.333C136.195,629,136.195,636,136.195,639.5L136.195,643" id="container-L_Pulsar_Transcode_0" class="edge-thickness-normal edge-pattern-solid edge-thickness-normal edge-pattern-solid flowchart-link" style=";" data-edge="true" data-et="edge" data-id="L_Pulsar_Transcode_0" data-points="W3sieCI6MTQwLjU3ODU3NTcyMTE1Mzg0LCJ5Ijo1NzJ9LHsieCI6MTM2LjE5NTMxMjUsInkiOjU5N30seyJ4IjoxMzYuMTk1MzEyNSwieSI6NjIyfSx7IngiOjEzNi4xOTUzMTI1LCJ5Ijo2NDd9XQ==" data-look="classic" marker-end="url(#container_flowchart-v2-pointEnd)"></path><path d="M202.673,572L211.525,576.167C220.377,580.333,238.081,588.667,246.933,597C255.785,605.333,255.785,613.667,261.708,621.64C267.631,629.612,279.477,637.225,285.4,641.031L291.322,644.837" id="container-L_Pulsar_Train_0" class="edge-thickness-normal edge-pattern-solid edge-thickness-normal edge-pattern-solid flowchart-link" style=";" data-edge="true" data-et="edge" data-id="L_Pulsar_Train_0" data-points="W3sieCI6MjAyLjY3MzMwMjI4MzY1Mzg0LCJ5Ijo1NzJ9LHsieCI6MjU1Ljc4NTE1NjI1LCJ5Ijo1OTd9LHsieCI6MjU1Ljc4NTE1NjI1LCJ5Ijo2MjJ9LHsieCI6Mjk0LjY4NzQzODk2NDg0Mzc1LCJ5Ijo2NDd9XQ==" data-look="classic" marker-end="url(#container_flowchart-v2-pointEnd)"></path><path d="M136.195,725L136.195,729.167C136.195,733.333,136.195,741.667,136.195,750C136.195,758.333,136.195,766.667,136.195,775C136.195,783.333,136.195,791.667,185.446,806.093C234.697,820.519,333.199,841.037,382.45,851.297L431.701,861.556" id="container-L_Transcode_Obj_0" class="edge-thickness-normal edge-pattern-solid edge-thickness-normal edge-pattern-solid flowchart-link" style=";" data-edge="true" data-et="edge" data-id="L_Transcode_Obj_0" data-points="W3sieCI6MTM2LjE5NTMxMjUsInkiOjcyNX0seyJ4IjoxMzYuMTk1MzEyNSwieSI6NzUwfSx7IngiOjEzNi4xOTUzMTI1LCJ5Ijo3NzV9LHsieCI6MTM2LjE5NTMxMjUsInkiOjgwMH0seyJ4Ijo0MzUuNjE3MTg3NSwieSI6ODYyLjM3MTk1Mzg1OTA1M31d" data-look="classic" marker-end="url(#container_flowchart-v2-pointEnd)"></path></g><g class="edgeLabels"><g class="edgeLabel"><g class="label" data-id="L_Mobile_GW_0" transform="translate(0, 0)"><foreignObject width="0" height="0"><div xmlns="http://www.w3.org/1999/xhtml" class="labelBkg" style="display: table-cell; white-space: nowrap; line-height: 1.5; max-width: 200px; text-align: center;"><span class="edgeLabel"></span></div></foreignObject></g></g><g class="edgeLabel"><g class="label" data-id="L_Mobile_CDN_0" transform="translate(0, 0)"><foreignObject width="0" height="0"><div xmlns="http://www.w3.org/1999/xhtml" class="labelBkg" style="display: table-cell; white-space: nowrap; line-height: 1.5; max-width: 200px; text-align: center;"><span class="edgeLabel"></span></div></foreignObject></g></g><g class="edgeLabel"><g class="label" data-id="L_GW_VideoSvc_0" transform="translate(0, 0)"><foreignObject width="0" height="0"><div xmlns="http://www.w3.org/1999/xhtml" class="labelBkg" style="display: table-cell; white-space: nowrap; line-height: 1.5; max-width: 200px; text-align: center;"><span class="edgeLabel"></span></div></foreignObject></g></g><g class="edgeLabel"><g class="label" data-id="L_GW_FeedSvc_0" transform="translate(0, 0)"><foreignObject width="0" height="0"><div xmlns="http://www.w3.org/1999/xhtml" class="labelBkg" style="display: table-cell; white-space: nowrap; line-height: 1.5; max-width: 200px; text-align: center;"><span class="edgeLabel"></span></div></foreignObject></g></g><g class="edgeLabel"><g class="label" data-id="L_GW_SearchSvc_0" transform="translate(0, 0)"><foreignObject width="0" height="0"><div xmlns="http://www.w3.org/1999/xhtml" class="labelBkg" style="display: table-cell; white-space: nowrap; line-height: 1.5; max-width: 200px; text-align: center;"><span class="edgeLabel"></span></div></foreignObject></g></g><g class="edgeLabel"><g class="label" data-id="L_GW_SocialSvc_0" transform="translate(0, 0)"><foreignObject width="0" height="0"><div xmlns="http://www.w3.org/1999/xhtml" class="labelBkg" style="display: table-cell; white-space: nowrap; line-height: 1.5; max-width: 200px; text-align: center;"><span class="edgeLabel"></span></div></foreignObject></g></g><g class="edgeLabel"><g class="label" data-id="L_VideoSvc_Obj_0" transform="translate(0, 0)"><foreignObject width="0" height="0"><div xmlns="http://www.w3.org/1999/xhtml" class="labelBkg" style="display: table-cell; white-space: nowrap; line-height: 1.5; max-width: 200px; text-align: center;"><span class="edgeLabel"></span></div></foreignObject></g></g><g class="edgeLabel"><g class="label" data-id="L_VideoSvc_Pulsar_0" transform="translate(0, 0)"><foreignObject width="0" height="0"><div xmlns="http://www.w3.org/1999/xhtml" class="labelBkg" style="display: table-cell; white-space: nowrap; line-height: 1.5; max-width: 200px; text-align: center;"><span class="edgeLabel"></span></div></foreignObject></g></g><g class="edgeLabel"><g class="label" data-id="L_VideoSvc_PG_0" transform="translate(0, 0)"><foreignObject width="0" height="0"><div xmlns="http://www.w3.org/1999/xhtml" class="labelBkg" style="display: table-cell; white-space: nowrap; line-height: 1.5; max-width: 200px; text-align: center;"><span class="edgeLabel"></span></div></foreignObject></g></g><g class="edgeLabel"><g class="label" data-id="L_FeedSvc_FeedCache_0" transform="translate(0, 0)"><foreignObject width="0" height="0"><div xmlns="http://www.w3.org/1999/xhtml" class="labelBkg" style="display: table-cell; white-space: nowrap; line-height: 1.5; max-width: 200px; text-align: center;"><span class="edgeLabel"></span></div></foreignObject></g></g><g class="edgeLabel"><g class="label" data-id="L_FeedSvc_Ranking_0" transform="translate(0, 0)"><foreignObject width="0" height="0"><div xmlns="http://www.w3.org/1999/xhtml" class="labelBkg" style="display: table-cell; white-space: nowrap; line-height: 1.5; max-width: 200px; text-align: center;"><span class="edgeLabel"></span></div></foreignObject></g></g><g class="edgeLabel"><g class="label" data-id="L_Ranking_Idx_0" transform="translate(0, 0)"><foreignObject width="0" height="0"><div xmlns="http://www.w3.org/1999/xhtml" class="labelBkg" style="display: table-cell; white-space: nowrap; line-height: 1.5; max-width: 200px; text-align: center;"><span class="edgeLabel"></span></div></foreignObject></g></g><g class="edgeLabel"><g class="label" data-id="L_Ranking_Train_0" transform="translate(0, 0)"><foreignObject width="0" height="0"><div xmlns="http://www.w3.org/1999/xhtml" class="labelBkg" style="display: table-cell; white-space: nowrap; line-height: 1.5; max-width: 200px; text-align: center;"><span class="edgeLabel"></span></div></foreignObject></g></g><g class="edgeLabel"><g class="label" data-id="L_SearchSvc_Idx_0" transform="translate(0, 0)"><foreignObject width="0" height="0"><div xmlns="http://www.w3.org/1999/xhtml" class="labelBkg" style="display: table-cell; white-space: nowrap; line-height: 1.5; max-width: 200px; text-align: center;"><span class="edgeLabel"></span></div></foreignObject></g></g><g class="edgeLabel"><g class="label" data-id="L_SocialSvc_PG_0" transform="translate(0, 0)"><foreignObject width="0" height="0"><div xmlns="http://www.w3.org/1999/xhtml" class="labelBkg" style="display: table-cell; white-space: nowrap; line-height: 1.5; max-width: 200px; text-align: center;"><span class="edgeLabel"></span></div></foreignObject></g></g><g class="edgeLabel"><g class="label" data-id="L_SocialSvc_Pulsar_0" transform="translate(0, 0)"><foreignObject width="0" height="0"><div xmlns="http://www.w3.org/1999/xhtml" class="labelBkg" style="display: table-cell; white-space: nowrap; line-height: 1.5; max-width: 200px; text-align: center;"><span class="edgeLabel"></span></div></foreignObject></g></g><g class="edgeLabel"><g class="label" data-id="L_CDN_Obj_0" transform="translate(0, 0)"><foreignObject width="0" height="0"><div xmlns="http://www.w3.org/1999/xhtml" class="labelBkg" style="display: table-cell; white-space: nowrap; line-height: 1.5; max-width: 200px; text-align: center;"><span class="edgeLabel"></span></div></foreignObject></g></g><g class="edgeLabel"><g class="label" data-id="L_Pulsar_Transcode_0" transform="translate(0, 0)"><foreignObject width="0" height="0"><div xmlns="http://www.w3.org/1999/xhtml" class="labelBkg" style="display: table-cell; white-space: nowrap; line-height: 1.5; max-width: 200px; text-align: center;"><span class="edgeLabel"></span></div></foreignObject></g></g><g class="edgeLabel"><g class="label" data-id="L_Pulsar_Train_0" transform="translate(0, 0)"><foreignObject width="0" height="0"><div xmlns="http://www.w3.org/1999/xhtml" class="labelBkg" style="display: table-cell; white-space: nowrap; line-height: 1.5; max-width: 200px; text-align: center;"><span class="edgeLabel"></span></div></foreignObject></g></g><g class="edgeLabel"><g class="label" data-id="L_Transcode_Obj_0" transform="translate(0, 0)"><foreignObject width="0" height="0"><div xmlns="http://www.w3.org/1999/xhtml" class="labelBkg" style="display: table-cell; white-space: nowrap; line-height: 1.5; max-width: 200px; text-align: center;"><span class="edgeLabel"></span></div></foreignObject></g></g></g><g class="nodes"><g class="node default svc" id="container-flowchart-Mobile-0" data-look="classic" transform="translate(751.390625, 60)"><rect class="basic label-container" style="fill:#d0ebff !important;stroke:#1c7ed6 !important" x="-50.9375" y="-27" width="101.875" height="54"></rect><g class="label" style="color:#1a1a1a !important" transform="translate(-20.9375, -12)"><rect></rect><foreignObject width="41.875" height="24"><div style="color: rgb(26, 26, 26) !important; display: table-cell; white-space: nowrap; line-height: 1.5; max-width: 200px; text-align: center;" xmlns="http://www.w3.org/1999/xhtml"><span style="color:#1a1a1a !important" class="nodeLabel"><p>Client</p></span></div></foreignObject></g></g><g class="node default edge" id="container-flowchart-GW-1" data-look="classic" transform="translate(923.1015625, 238)"><rect class="basic label-container" style="fill:#fff3bf !important;stroke:#f08c00 !important" x="-74.0546875" y="-27" width="148.109375" height="54"></rect><g class="label" style="color:#1a1a1a !important" transform="translate(-44.0546875, -12)"><rect></rect><foreignObject width="88.109375" height="24"><div style="color: rgb(26, 26, 26) !important; display: table-cell; white-space: nowrap; line-height: 1.5; max-width: 200px; text-align: center;" xmlns="http://www.w3.org/1999/xhtml"><span style="color:#1a1a1a !important" class="nodeLabel"><p>API Gateway</p></span></div></foreignObject></g></g><g class="node default edge" id="container-flowchart-CDN-2" data-look="classic" transform="translate(495.4765625, 238)"><rect class="basic label-container" style="fill:#fff3bf !important;stroke:#f08c00 !important" x="-130" y="-51" width="260" height="102"></rect><g class="label" style="color:#1a1a1a !important" transform="translate(-100, -36)"><rect></rect><foreignObject width="200" height="72"><div style="color: rgb(26, 26, 26) !important; display: table; white-space: break-spaces; line-height: 1.5; max-width: 200px; text-align: center; width: 200px;" xmlns="http://www.w3.org/1999/xhtml"><span style="color:#1a1a1a !important" class="nodeLabel"><p>CDN Edge<br/>Multi-Provider + HyperEdge PCDN</p></span></div></foreignObject></g></g><g class="node default svc" id="container-flowchart-VideoSvc-3" data-look="classic" transform="translate(838.8984375, 416)"><rect class="basic label-container" style="fill:#d0ebff !important;stroke:#1c7ed6 !important" x="-78.671875" y="-27" width="157.34375" height="54"></rect><g class="label" style="color:#1a1a1a !important" transform="translate(-48.671875, -12)"><rect></rect><foreignObject width="97.34375" height="24"><div style="color: rgb(26, 26, 26) !important; display: table-cell; white-space: nowrap; line-height: 1.5; max-width: 200px; text-align: center;" xmlns="http://www.w3.org/1999/xhtml"><span style="color:#1a1a1a !important" class="nodeLabel"><p>Video Service</p></span></div></foreignObject></g></g><g class="node default svc" id="container-flowchart-FeedSvc-4" data-look="classic" transform="translate(1042.8671875, 416)"><rect class="basic label-container" style="fill:#d0ebff !important;stroke:#1c7ed6 !important" x="-75.296875" y="-27" width="150.59375" height="54"></rect><g class="label" style="color:#1a1a1a !important" transform="translate(-45.296875, -12)"><rect></rect><foreignObject width="90.59375" height="24"><div style="color: rgb(26, 26, 26) !important; display: table-cell; white-space: nowrap; line-height: 1.5; max-width: 200px; text-align: center;" xmlns="http://www.w3.org/1999/xhtml"><span style="color:#1a1a1a !important" class="nodeLabel"><p>Feed Service</p></span></div></foreignObject></g></g><g class="node default svc" id="container-flowchart-Ranking-5" data-look="classic" transform="translate(1129.43359375, 545)"><rect class="basic label-container" style="fill:#d0ebff !important;stroke:#1c7ed6 !important" x="-87.1484375" y="-27" width="174.296875" height="54"></rect><g class="label" style="color:#1a1a1a !important" transform="translate(-57.1484375, -12)"><rect></rect><foreignObject width="114.296875" height="24"><div style="color: rgb(26, 26, 26) !important; display: table-cell; white-space: nowrap; line-height: 1.5; max-width: 200px; text-align: center;" xmlns="http://www.w3.org/1999/xhtml"><span style="color:#1a1a1a !important" class="nodeLabel"><p>Ranking Service</p></span></div></foreignObject></g></g><g class="node default svc" id="container-flowchart-SocialSvc-6" data-look="classic" transform="translate(630.3515625, 416)"><rect class="basic label-container" style="fill:#d0ebff !important;stroke:#1c7ed6 !important" x="-79.875" y="-27" width="159.75" height="54"></rect><g class="label" style="color:#1a1a1a !important" transform="translate(-49.875, -12)"><rect></rect><foreignObject width="99.75" height="24"><div style="color: rgb(26, 26, 26) !important; display: table-cell; white-space: nowrap; line-height: 1.5; max-width: 200px; text-align: center;" xmlns="http://www.w3.org/1999/xhtml"><span style="color:#1a1a1a !important" class="nodeLabel"><p>Social Service</p></span></div></foreignObject></g></g><g class="node default svc" id="container-flowchart-SearchSvc-7" data-look="classic" transform="translate(1349.08203125, 545)"><rect class="basic label-container" style="fill:#d0ebff !important;stroke:#1c7ed6 !important" x="-82.5" y="-27" width="165" height="54"></rect><g class="label" style="color:#1a1a1a !important" transform="translate(-52.5, -12)"><rect></rect><foreignObject width="105" height="24"><div style="color: rgb(26, 26, 26) !important; display: table-cell; white-space: nowrap; line-height: 1.5; max-width: 200px; text-align: center;" xmlns="http://www.w3.org/1999/xhtml"><span style="color:#1a1a1a !important" class="nodeLabel"><p>Search Service</p></span></div></foreignObject></g></g><g class="node default async" id="container-flowchart-Pulsar-8" data-look="classic" transform="translate(145.3125, 545)"><rect class="basic label-container" style="fill:#ffe8cc !important;stroke:#e8590c !important" x="-102.3125" y="-27" width="204.625" height="54"></rect><g class="label" style="color:#1a1a1a !important" transform="translate(-72.3125, -12)"><rect></rect><foreignObject width="144.625" height="24"><div style="color: rgb(26, 26, 26) !important; display: table-cell; white-space: nowrap; line-height: 1.5; max-width: 200px; text-align: center;" xmlns="http://www.w3.org/1999/xhtml"><span style="color:#1a1a1a !important" class="nodeLabel"><p>Pulsar Event Stream</p></span></div></foreignObject></g></g><g class="node default async" id="container-flowchart-Transcode-9" data-look="classic" transform="translate(136.1953125, 686)"><rect class="basic label-container" style="fill:#ffe8cc !important;stroke:#e8590c !important" x="-84.078125" y="-39" width="168.15625" height="78"></rect><g class="label" style="color:#1a1a1a !important" transform="translate(-54.078125, -24)"><rect></rect><foreignObject width="108.15625" height="48"><div style="color: rgb(26, 26, 26) !important; display: table-cell; white-space: nowrap; line-height: 1.5; max-width: 200px; text-align: center;" xmlns="http://www.w3.org/1999/xhtml"><span style="color:#1a1a1a !important" class="nodeLabel"><p>GPU Transcode<br/>Workers</p></span></div></foreignObject></g></g><g class="node default async" id="container-flowchart-Train-10" data-look="classic" transform="translate(355.375, 686)"><rect class="basic label-container" style="fill:#ffe8cc !important;stroke:#e8590c !important" x="-85.1015625" y="-39" width="170.203125" height="78"></rect><g class="label" style="color:#1a1a1a !important" transform="translate(-55.1015625, -24)"><rect></rect><foreignObject width="110.203125" height="48"><div style="color: rgb(26, 26, 26) !important; display: table-cell; white-space: nowrap; line-height: 1.5; max-width: 200px; text-align: center;" xmlns="http://www.w3.org/1999/xhtml"><span style="color:#1a1a1a !important" class="nodeLabel"><p>Online Training<br/>Pipeline</p></span></div></foreignObject></g></g><g class="node default store" id="container-flowchart-Obj-11" data-look="classic" transform="translate(495.4765625, 874.841136932373)"><path d="M0,12.230238794534541 a59.859375,12.230238794534541 0,0,0 119.71875,0 a59.859375,12.230238794534541 0,0,0 -119.71875,0 l0,75.23023879453454 a59.859375,12.230238794534541 0,0,0 119.71875,0 l0,-75.23023879453454" class="basic label-container outer-path" style="fill:#d3f9d8 !important;stroke:#2f9e44 !important" transform="translate(-59.859375, -49.845358191801814)"></path><g class="label" style="color:#1a1a1a !important" transform="translate(-52.359375, -14)"><rect></rect><foreignObject width="104.71875" height="48"><div style="color: rgb(26, 26, 26) !important; display: table-cell; white-space: nowrap; line-height: 1.5; max-width: 200px; text-align: center;" xmlns="http://www.w3.org/1999/xhtml"><span style="color:#1a1a1a !important" class="nodeLabel"><p>Object Store<br/>S3-compatible</p></span></div></foreignObject></g></g><g class="node default store" id="container-flowchart-FeedCache-12" data-look="classic" transform="translate(964.01171875, 874.841136932373)"><path d="M0,10.910531877421628 a48.3984375,10.910531877421628 0,0,0 96.796875,0 a48.3984375,10.910531877421628 0,0,0 -96.796875,0 l0,73.91053187742163 a48.3984375,10.910531877421628 0,0,0 96.796875,0 l0,-73.91053187742163" class="basic label-container outer-path" style="fill:#d3f9d8 !important;stroke:#2f9e44 !important" transform="translate(-48.3984375, -47.86579781613244)"></path><g class="label" style="color:#1a1a1a !important" transform="translate(-40.8984375, -14)"><rect></rect><foreignObject width="81.796875" height="48"><div style="color: rgb(26, 26, 26) !important; display: table-cell; white-space: nowrap; line-height: 1.5; max-width: 200px; text-align: center;" xmlns="http://www.w3.org/1999/xhtml"><span style="color:#1a1a1a !important" class="nodeLabel"><p>Feed Cache<br/>Redis</p></span></div></foreignObject></g></g><g class="node default store" id="container-flowchart-Idx-13" data-look="classic" transform="translate(1221.4765625, 874.841136932373)"><path d="M0,11.671997867519659 a54.734375,11.671997867519659 0,0,0 109.46875,0 a54.734375,11.671997867519659 0,0,0 -109.46875,0 l0,74.67199786751966 a54.734375,11.671997867519659 0,0,0 109.46875,0 l0,-74.67199786751966" class="basic label-container outer-path" style="fill:#d3f9d8 !important;stroke:#2f9e44 !important" transform="translate(-54.734375, -49.00799680127949)"></path><g class="label" style="color:#1a1a1a !important" transform="translate(-47.234375, -14)"><rect></rect><foreignObject width="94.46875" height="48"><div style="color: rgb(26, 26, 26) !important; display: table-cell; white-space: nowrap; line-height: 1.5; max-width: 200px; text-align: center;" xmlns="http://www.w3.org/1999/xhtml"><span style="color:#1a1a1a !important" class="nodeLabel"><p>Search Index<br/>Elasticsearch</p></span></div></foreignObject></g></g><g class="node default store" id="container-flowchart-PG-14" data-look="classic" transform="translate(1476.58203125, 874.841136932373)"><path d="M0,10.901593119977441 a48.328125,10.901593119977441 0,0,0 96.65625,0 a48.328125,10.901593119977441 0,0,0 -96.65625,0 l0,73.90159311997743 a48.328125,10.901593119977441 0,0,0 96.65625,0 l0,-73.90159311997743" class="basic label-container outer-path" style="fill:#d3f9d8 !important;stroke:#2f9e44 !important" transform="translate(-48.328125, -47.85238967996616)"></path><g class="label" style="color:#1a1a1a !important" transform="translate(-40.828125, -14)"><rect></rect><foreignObject width="81.65625" height="48"><div style="color: rgb(26, 26, 26) !important; display: table-cell; white-space: nowrap; line-height: 1.5; max-width: 200px; text-align: center;" xmlns="http://www.w3.org/1999/xhtml"><span style="color:#1a1a1a !important" class="nodeLabel"><p>PostgreSQL<br/>Metadata</p></span></div></foreignObject></g></g></g></g></g><defs><filter id="container-drop-shadow" height="130%" width="130%"><feDropShadow dx="4" dy="4" stdDeviation="0" flood-opacity="0.06" flood-color="#000000"></feDropShadow></filter></defs><defs><filter id="container-drop-shadow-small" height="150%" width="150%"><feDropShadow dx="2" dy="2" stdDeviation="0" flood-opacity="0.06" flood-color="#000000"></feDropShadow></filter></defs><linearGradient id="container-gradient" gradientUnits="objectBoundingBox" x1="0%" y1="0%" x2="100%" y2="0%"><stop offset="0%" stop-color="hsl(0, 0%, 83.3333333333%)" stop-opacity="1"></stop><stop offset="100%" stop-color="hsl(0, 0%, 88.9215686275%)" stop-opacity="1"></stop></linearGradient></svg>